{"title":"ä¸­åœ‹å¥³å­©.China.Girl.1987.DVDRip.å…§åµŒç°¡ä¸­.Chs.subbed","uid":11185956,"size":359071239,"categoryP":"video","categoryS":"movies","magnet":"?xt=urn:btih:f08a3ec3f6ec1005dd94eb860cd3c2a58fc90c5b&amp;dn=%E4%B8%AD%E5%9C%8B%E5%A5%B3%E5%AD%A9.China.Girl.1987.DVDRip.%E5%85%A7%E5%B5%8C%E7%B0%A1%E4%B8%AD.Chs.subbed&amp;tr=udp%3A%2F%2Ftracker.openbittorrent.com%3A80&amp;tr=udp%3A%2F%2Fopen.demonii.com%3A1337&amp;tr=udp%3A%2F%2Ftracker.coppersurfer.tk%3A6969&amp;tr=udp%3A%2F%2Fexodus.desync.com%3A6969","seeders":1,"leechers":0,"uploader":"app1985","files":-1,"time":1412917148,"description":"[emule]\n\ned2k://|file|ä¸­åœ‹å¥³å­©.China.Girl.1987.DVDRip.å…§åµŒç°¡ä¸­.Chs.subbed.mp4|359071239|F4D67A02AE4E4734EB1B98297E94A292|/\n\n\n\n &lt;a href=&quot;\nhttp://www.imdb.com/title/tt0092751/&quot; rel=&quot;nofollow&quot; target=&quot;_NEW&quot;&gt;\nhttp://www.imdb.com/title/tt0092751/&lt;/a&gt;\n\n\n\n\nscreens:\n &lt;a href=&quot;\nhttp://bayimg.com/DAAjCaAgp&quot; rel=&quot;nofollow&quot; target=&quot;_NEW&quot;&gt;\nhttp://bayimg.com/DAAjCaAgp&lt;/a&gt;\n &lt;a href=&quot;\nhttp://bayimg.com/DAAJeAAGp&quot; rel=&quot;nofollow&quot; target=&quot;_NEW&quot;&gt;\nhttp://bayimg.com/DAAJeAAGp&lt;/a&gt;\n &lt;a href=&quot;\nhttp://bayimg.com/DAAJBaAgp&quot; rel=&quot;nofollow&quot; target=&quot;_NEW&quot;&gt;\nhttp://bayimg.com/DAAJBaAgp&lt;/a&gt;\n\n\n\n\n\n\nGeneral\nComplete name   : ä¸­åœ‹å¥³å­©.China.Girl.1987.DVDRip.å…§åµŒç°¡ä¸­.Chs.subbed.mp4\nFormat                         : MPEG-4\nFormat profile                 : Base Media\nCodec ID                       : isom\nFile size                      : 342 MiB\nDuration                       : 1h 26mn\nOverall bit rate mode          : Variable\nOverall bit rate               : 551 Kbps\nWriting application            : Lavf52.34.0\n\nVideo\nID                             : 1\nFormat                         : AVC\nFormat/Info                    : Advanced Video Codec\nFormat profile                 : &lt;a class=&quot;__cf_email__&quot; href=&quot;/cdn-cgi/l/email-protection&quot; data-cfemail=&quot;99d1f0fef1d9d5aab7a9&quot;&gt;[email&amp;#160;protected]&lt;/a&gt;&lt;script cf-hash='f9e31' type=&quot;text/javascript&quot;&gt;\n/* &lt;![CDATA[ */!function(){try{var t=&quot;currentScript&quot;in document?document.currentScript:function(){for(var t=document.getElementsByTagName(&quot;script&quot;),e=t.length;e--;)if(t[e].getAttribute(&quot;cf-hash&quot;))return t[e]}();if(t&amp;&amp;t.previousSibling){var e,r,n,i,c=t.previousSibling,a=c.getAttribute(&quot;data-cfemail&quot;);if(a){for(e=&quot;&quot;,r=parseInt(a.substr(0,2),16),n=2;a.length-n;n+=2)i=parseInt(a.substr(n,2),16)^r,e+=String.fromCharCode(i);e=document.createTextNode(e),c.parentNode.replaceChild(e,c)}}}catch(u){}}();/* ]]&gt; */&lt;/script&gt;\nFormat settings, CABAC         : Yes\nFormat settings, ReFrames      : 5 frames\nCodec ID                       : avc1\nCodec ID/Info                  : Advanced Video Coding\nDuration                       : 1h 26mn\nBit rate                       : 500 Kbps\nWidth                          : 576 pixels\nHeight                         : 442 pixels\nDisplay aspect ratio           : 4:3\nFrame rate mode                : Constant\nFrame rate                     : 25.000 fps\nColor space                    : YUV\nChroma subsampling             : 4:2:0\nBit depth                      : 8 bits\nScan type                      : Progressive\nBits/(Pixel*Frame)             : 0.079\nStream size                    : 311 MiB (91%)\n\nAudio\nID                             : 2\nFormat                         : AAC\nFormat/Info                    : Advanced Audio Codec\nFormat profile                 : HE-AAC / LC\nCodec ID                       : 40\nDuration                       : 1h 26mn\nBit rate mode                  : Variable\nBit rate                       : 48.0 Kbps\nChannel(s)                     : 2 channels\nChannel positions              : Front: L R\nSampling rate                  : 44.1 KHz / 22.05 KHz\nCompression mode               : Lossy\nStream size                    : 29.8 MiB (9%)\n\n","torrent":{"xt":"urn:btih:f08a3ec3f6ec1005dd94eb860cd3c2a58fc90c5b","amp;dn":"%E4%B8%AD%E5%9C%8B%E5%A5%B3%E5%AD%A9.China.Girl.1987.DVDRip.%E5%85%A7%E5%B5%8C%E7%B0%A1%E4%B8%AD.Chs.subbed","amp;tr":["udp%3A%2F%2Ftracker.openbittorrent.com%3A80","udp%3A%2F%2Fopen.demonii.com%3A1337","udp%3A%2F%2Ftracker.coppersurfer.tk%3A6969","udp%3A%2F%2Fexodus.desync.com%3A6969"],"infoHash":"f08a3ec3f6ec1005dd94eb860cd3c2a58fc90c5b","infoHashBuffer":{"type":"Buffer","data":[240,138,62,195,246,236,16,5,221,148,235,134,12,211,194,165,143,201,12,91]},"announce":[],"urlList":[]}}